<svg width="20" height="18" viewBox="0 0 20 18" fill="none" xmlns="http://www.w3.org/2000/svg">
<path fill-rule="evenodd" clip-rule="evenodd" d="M18.28 1.26129C18.4125 1.11912 18.4846 0.93107 18.4812 0.736769C18.4777 0.542468 18.399 0.357083 18.2616 0.21967C18.1242 0.0822571 17.9388 0.00354506 17.7445 0.000116847C17.5502 -0.00331137 17.3622 0.0688118 17.22 0.201292L1.22 16.2013C1.14631 16.27 1.08721 16.3528 1.04622 16.4448C1.00523 16.5368 0.983186 16.6361 0.981409 16.7368C0.979633 16.8375 0.998157 16.9375 1.03588 17.0309C1.0736 17.1243 1.12974 17.2091 1.20096 17.2803C1.27218 17.3515 1.35702 17.4077 1.4504 17.4454C1.54379 17.4831 1.64382 17.5017 1.74452 17.4999C1.84523 17.4981 1.94454 17.4761 2.03654 17.4351C2.12854 17.3941 2.21134 17.335 2.28 17.2613L5.127 14.4143C6.494 15.0583 8.067 15.4813 9.75 15.4813C12.434 15.4813 14.84 14.4043 16.57 13.0763C17.437 12.4113 18.153 11.6693 18.659 10.9403C19.151 10.2313 19.5 9.45429 19.5 8.73129C19.5 8.00829 19.15 7.23129 18.659 6.52229C18.153 5.79329 17.437 5.05229 16.571 4.38629C16.308 4.18529 16.031 3.98929 15.739 3.80329L18.28 1.26129ZM14.65 4.89229L12.879 6.66329C13.3565 7.38442 13.57 8.24843 13.4834 9.10896C13.3968 9.96949 13.0155 10.7736 12.4039 11.3852C11.7923 11.9968 10.9882 12.3781 10.1277 12.4647C9.26714 12.5513 8.40313 12.3378 7.682 11.8603L6.265 13.2763C7.37015 13.7344 8.55367 13.9739 9.75 13.9813C12.037 13.9813 14.13 13.0583 15.657 11.8863C16.419 11.3013 17.021 10.6683 17.427 10.0853C17.846 9.48129 18 9.00829 18 8.73129C18 8.45429 17.846 7.98129 17.427 7.37729C17.021 6.79429 16.419 6.16129 15.657 5.57629C15.344 5.33629 15.008 5.10629 14.65 4.89229ZM8.779 10.7623C9.19886 10.9628 9.67056 11.0282 10.1292 10.9496C10.5877 10.8709 11.0107 10.652 11.3397 10.323C11.6687 9.99394 11.8876 9.57103 11.9663 9.11244C12.0449 8.65385 11.9795 8.18215 11.779 7.76229L8.779 10.7623Z" fill="#950DFF"/>
<path d="M9.75 1.98129C10.782 1.98129 11.774 2.14129 12.701 2.41229C12.7416 2.4244 12.7783 2.44691 12.8075 2.47759C12.8367 2.50826 12.8574 2.54604 12.8675 2.58717C12.8776 2.6283 12.8768 2.67136 12.8651 2.71208C12.8535 2.75279 12.8314 2.78975 12.801 2.81929L11.977 3.64429C11.9464 3.67464 11.9086 3.69672 11.8672 3.70844C11.8257 3.72016 11.7819 3.72114 11.74 3.71129C11.0875 3.55974 10.4199 3.48258 9.75 3.48129C7.463 3.48129 5.37 4.40429 3.843 5.57629C3.081 6.16129 2.479 6.79429 2.073 7.37729C1.654 7.98129 1.5 8.45429 1.5 8.73129C1.5 9.00829 1.654 9.48129 2.073 10.0853C2.427 10.5953 2.931 11.1423 3.561 11.6623C3.677 11.7573 3.688 11.9323 3.581 12.0393L2.873 12.7483C2.82964 12.7923 2.77132 12.8183 2.70962 12.8213C2.64793 12.8243 2.58738 12.8039 2.54 12.7643C1.89617 12.2334 1.32494 11.6201 0.841 10.9403C0.35 10.2313 0 9.45429 0 8.73129C0 8.00829 0.35 7.23129 0.841 6.52229C1.347 5.79329 2.063 5.05229 2.929 4.38629C4.66 3.05829 7.066 1.98129 9.75 1.98129Z" fill="#950DFF"/>
<path d="M9.75 4.98129C9.868 4.98129 9.986 4.98629 10.101 4.99729C10.298 5.01629 10.369 5.25129 10.23 5.39129L9.017 6.60329C8.694 6.71497 8.40059 6.89856 8.15893 7.14022C7.91727 7.38189 7.73367 7.67529 7.622 7.99829L6.41 9.21129C6.27 9.35129 6.035 9.27929 6.016 9.08229C5.96713 8.56249 6.02734 8.03822 6.19278 7.54303C6.35821 7.04785 6.62522 6.59266 6.97672 6.20662C7.32821 5.82057 7.75645 5.51218 8.234 5.30118C8.71156 5.09018 9.22791 4.98123 9.75 4.98129Z" fill="#950DFF"/>
</svg>
